<?xml version="1.0" encoding="UTF-8" standalone="no"?>
<!DOCTYPE svg PUBLIC "-//W3C//DTD SVG 1.1//EN"
 "http://www.w3.org/Graphics/SVG/1.1/DTD/svg11.dtd">
<!-- Generated by graphviz version 2.47.0 (20210316.0004)
 -->
<!-- Title: dbml Pages: 1 -->
<svg width="2556pt" height="2870pt"
 viewBox="0.00 0.00 2555.52 2870.07" xmlns="http://www.w3.org/2000/svg" xmlns:xlink="http://www.w3.org/1999/xlink">
<g id="graph0" class="graph" transform="scale(1 1) rotate(0) translate(4 2866.07)">
<title>dbml</title>
<!-- Department -->
<g id="Department" class="node">
<title>Department</title>
<ellipse fill="none" stroke="black" stroke-width="0" cx="345.78" cy="-130.11" rx="263.09" ry="130.22"/>
<polygon fill="#1d71b8" stroke="transparent" points="161.78,-160.11 161.78,-220.11 529.78,-220.11 529.78,-160.11 161.78,-160.11"/>
<polygon fill="none" stroke="#29235c" points="161.78,-160.11 161.78,-220.11 529.78,-220.11 529.78,-160.11 161.78,-160.11"/>
<text text-anchor="start" x="199.96" y="-181.31" font-family="Helvetica,sans-Serif" font-weight="bold" font-size="32.00" fill="#ffffff"> &#160;&#160;&#160;&#160;&#160;&#160;Department &#160;&#160;&#160;&#160;&#160;&#160;</text>
<polygon fill="#e7e2dd" stroke="transparent" points="161.78,-100.11 161.78,-160.11 529.78,-160.11 529.78,-100.11 161.78,-100.11"/>
<polygon fill="none" stroke="#29235c" points="161.78,-100.11 161.78,-160.11 529.78,-160.11 529.78,-100.11 161.78,-100.11"/>
<text text-anchor="start" x="172.78" y="-121.31" font-family="Helvetica,sans-Serif" font-weight="bold" font-size="32.00" fill="#29235c">id</text>
<text text-anchor="start" x="197.66" y="-121.31" font-family="Helvetica,sans-Serif" font-size="32.00" fill="#29235c"> &#160;&#160;&#160;</text>
<text text-anchor="start" x="376.56" y="-121.31" font-family="Helvetica,sans-Serif" font-style="italic" font-size="32.00" fill="#29235c">INTEGER</text>
<polygon fill="#e7e2dd" stroke="transparent" points="161.78,-40.11 161.78,-100.11 529.78,-100.11 529.78,-40.11 161.78,-40.11"/>
<polygon fill="none" stroke="#29235c" points="161.78,-40.11 161.78,-100.11 529.78,-100.11 529.78,-40.11 161.78,-40.11"/>
<text text-anchor="start" x="172.48" y="-60.31" font-family="Helvetica,sans-Serif" font-size="32.00" fill="#29235c">name &#160;&#160;&#160;</text>
<text text-anchor="start" x="287.73" y="-61.31" font-family="Helvetica,sans-Serif" font-style="italic" font-size="32.00" fill="#29235c">VARCHAR(100)</text>
<polygon fill="none" stroke="#29235c" stroke-width="2" points="160.78,-39.11 160.78,-221.11 530.78,-221.11 530.78,-39.11 160.78,-39.11"/>
</g>
<!-- Device -->
<g id="Device" class="node">
<title>Device</title>
<ellipse fill="none" stroke="black" stroke-width="0" cx="1044.33" cy="-911.11" rx="316.57" ry="257.27"/>
<polygon fill="#1d71b8" stroke="transparent" points="822.33,-1031.11 822.33,-1091.11 1266.33,-1091.11 1266.33,-1031.11 822.33,-1031.11"/>
<polygon fill="none" stroke="#29235c" points="822.33,-1031.11 822.33,-1091.11 1266.33,-1091.11 1266.33,-1031.11 822.33,-1031.11"/>
<text text-anchor="start" x="933.2" y="-1052.31" font-family="Helvetica,sans-Serif" font-weight="bold" font-size="32.00" fill="#ffffff"> &#160;&#160;&#160;&#160;&#160;&#160;Device &#160;&#160;&#160;&#160;&#160;&#160;</text>
<polygon fill="#e7e2dd" stroke="transparent" points="822.33,-971.11 822.33,-1031.11 1266.33,-1031.11 1266.33,-971.11 822.33,-971.11"/>
<polygon fill="none" stroke="#29235c" points="822.33,-971.11 822.33,-1031.11 1266.33,-1031.11 1266.33,-971.11 822.33,-971.11"/>
<text text-anchor="start" x="833.33" y="-992.31" font-family="Helvetica,sans-Serif" font-weight="bold" font-size="32.00" fill="#29235c">id</text>
<text text-anchor="start" x="858.22" y="-992.31" font-family="Helvetica,sans-Serif" font-size="32.00" fill="#29235c"> &#160;&#160;&#160;</text>
<text text-anchor="start" x="1113.12" y="-992.31" font-family="Helvetica,sans-Serif" font-style="italic" font-size="32.00" fill="#29235c">INTEGER</text>
<polygon fill="#e7e2dd" stroke="transparent" points="822.33,-911.11 822.33,-971.11 1266.33,-971.11 1266.33,-911.11 822.33,-911.11"/>
<polygon fill="none" stroke="#29235c" points="822.33,-911.11 822.33,-971.11 1266.33,-971.11 1266.33,-911.11 822.33,-911.11"/>
<text text-anchor="start" x="833.33" y="-931.31" font-family="Helvetica,sans-Serif" font-size="32.00" fill="#29235c">name &#160;&#160;&#160;</text>
<text text-anchor="start" x="1042.03" y="-932.31" font-family="Helvetica,sans-Serif" font-style="italic" font-size="32.00" fill="#29235c">VARCHAR(50)</text>
<polygon fill="#e7e2dd" stroke="transparent" points="822.33,-851.11 822.33,-911.11 1266.33,-911.11 1266.33,-851.11 822.33,-851.11"/>
<polygon fill="none" stroke="#29235c" points="822.33,-851.11 822.33,-911.11 1266.33,-911.11 1266.33,-851.11 822.33,-851.11"/>
<text text-anchor="start" x="833.33" y="-871.31" font-family="Helvetica,sans-Serif" font-size="32.00" fill="#29235c">model_id &#160;&#160;&#160;</text>
<text text-anchor="start" x="1113.12" y="-872.31" font-family="Helvetica,sans-Serif" font-style="italic" font-size="32.00" fill="#29235c">INTEGER</text>
<polygon fill="#e7e2dd" stroke="transparent" points="822.33,-791.11 822.33,-851.11 1266.33,-851.11 1266.33,-791.11 822.33,-791.11"/>
<polygon fill="none" stroke="#29235c" points="822.33,-791.11 822.33,-851.11 1266.33,-851.11 1266.33,-791.11 822.33,-791.11"/>
<text text-anchor="start" x="833.33" y="-811.31" font-family="Helvetica,sans-Serif" font-size="32.00" fill="#29235c">purchase_date &#160;&#160;&#160;</text>
<text text-anchor="start" x="1093.57" y="-812.31" font-family="Helvetica,sans-Serif" font-style="italic" font-size="32.00" fill="#29235c">DATETIME</text>
<polygon fill="#e7e2dd" stroke="transparent" points="822.33,-731.11 822.33,-791.11 1266.33,-791.11 1266.33,-731.11 822.33,-731.11"/>
<polygon fill="none" stroke="#29235c" points="822.33,-731.11 822.33,-791.11 1266.33,-791.11 1266.33,-731.11 822.33,-731.11"/>
<text text-anchor="start" x="833.16" y="-751.31" font-family="Helvetica,sans-Serif" font-size="32.00" fill="#29235c">warranty_expiry &#160;&#160;&#160;</text>
<text text-anchor="start" x="1093.95" y="-752.31" font-family="Helvetica,sans-Serif" font-style="italic" font-size="32.00" fill="#29235c">DATETIME</text>
<polygon fill="none" stroke="#29235c" stroke-width="2" points="821.33,-730.11 821.33,-1092.11 1267.33,-1092.11 1267.33,-730.11 821.33,-730.11"/>
</g>
<!-- Model -->
<g id="Model" class="node">
<title>Model</title>
<ellipse fill="none" stroke="black" stroke-width="0" cx="1704" cy="-971.11" rx="306.77" ry="172.57"/>
<polygon fill="#1d71b8" stroke="transparent" points="1489,-1031.11 1489,-1091.11 1919,-1091.11 1919,-1031.11 1489,-1031.11"/>
<polygon fill="none" stroke="#29235c" points="1489,-1031.11 1489,-1091.11 1919,-1091.11 1919,-1031.11 1489,-1031.11"/>
<text text-anchor="start" x="1598.19" y="-1052.31" font-family="Helvetica,sans-Serif" font-weight="bold" font-size="32.00" fill="#ffffff"> &#160;&#160;&#160;&#160;&#160;&#160;Model &#160;&#160;&#160;&#160;&#160;&#160;</text>
<polygon fill="#e7e2dd" stroke="transparent" points="1489,-971.11 1489,-1031.11 1919,-1031.11 1919,-971.11 1489,-971.11"/>
<polygon fill="none" stroke="#29235c" points="1489,-971.11 1489,-1031.11 1919,-1031.11 1919,-971.11 1489,-971.11"/>
<text text-anchor="start" x="1500" y="-992.31" font-family="Helvetica,sans-Serif" font-weight="bold" font-size="32.00" fill="#29235c">id</text>
<text text-anchor="start" x="1524.89" y="-992.31" font-family="Helvetica,sans-Serif" font-size="32.00" fill="#29235c"> &#160;&#160;&#160;</text>
<text text-anchor="start" x="1765.78" y="-992.31" font-family="Helvetica,sans-Serif" font-style="italic" font-size="32.00" fill="#29235c">INTEGER</text>
<polygon fill="#e7e2dd" stroke="transparent" points="1489,-911.11 1489,-971.11 1919,-971.11 1919,-911.11 1489,-911.11"/>
<polygon fill="none" stroke="#29235c" points="1489,-911.11 1489,-971.11 1919,-971.11 1919,-911.11 1489,-911.11"/>
<text text-anchor="start" x="1500" y="-931.31" font-family="Helvetica,sans-Serif" font-size="32.00" fill="#29235c">name &#160;&#160;&#160;</text>
<text text-anchor="start" x="1694.69" y="-932.31" font-family="Helvetica,sans-Serif" font-style="italic" font-size="32.00" fill="#29235c">VARCHAR(50)</text>
<polygon fill="#e7e2dd" stroke="transparent" points="1489,-851.11 1489,-911.11 1919,-911.11 1919,-851.11 1489,-851.11"/>
<polygon fill="none" stroke="#29235c" points="1489,-851.11 1489,-911.11 1919,-911.11 1919,-851.11 1489,-851.11"/>
<text text-anchor="start" x="1499.64" y="-871.31" font-family="Helvetica,sans-Serif" font-size="32.00" fill="#29235c">manufacturer_id &#160;&#160;&#160;</text>
<text text-anchor="start" x="1765.89" y="-872.31" font-family="Helvetica,sans-Serif" font-style="italic" font-size="32.00" fill="#29235c">INTEGER</text>
<polygon fill="none" stroke="#29235c" stroke-width="2" points="1488,-850.11 1488,-1092.11 1920,-1092.11 1920,-850.11 1488,-850.11"/>
</g>
<!-- Device&#45;&gt;Model -->
<!-- Device&#45;&gt;Model -->
<g id="edge2" class="edge">
<title>Device:e&#45;&gt;Model:w</title>
<path fill="none" stroke="#29235c" stroke-width="3" d="M1267.33,-881.11C1375.48,-881.11 1376.42,-993.72 1477.86,-1000.76"/>
<polygon fill="#29235c" stroke="#29235c" stroke-width="3" points="1477.89,-1004.27 1488,-1001.11 1478.13,-997.27 1477.89,-1004.27"/>
<text text-anchor="middle" x="1481.78" y="-972.31" font-family="Helvetica,sans-Serif" font-size="32.00" fill="#29235c">*</text>
<text text-anchor="middle" x="1258.44" y="-852.31" font-family="Helvetica,sans-Serif" font-size="32.00" fill="#29235c">1</text>
</g>
<!-- Manufacturer -->
<g id="Manufacturer" class="node">
<title>Manufacturer</title>
<ellipse fill="none" stroke="black" stroke-width="0" cx="2297.2" cy="-1001.11" rx="250.13" ry="130.22"/>
<polygon fill="#1d71b8" stroke="transparent" points="2122.2,-1031.11 2122.2,-1091.11 2472.2,-1091.11 2472.2,-1031.11 2122.2,-1031.11"/>
<polygon fill="none" stroke="#29235c" points="2122.2,-1031.11 2122.2,-1091.11 2472.2,-1091.11 2472.2,-1031.11 2122.2,-1031.11"/>
<text text-anchor="start" x="2140.71" y="-1052.31" font-family="Helvetica,sans-Serif" font-weight="bold" font-size="32.00" fill="#ffffff"> &#160;&#160;&#160;&#160;&#160;&#160;Manufacturer &#160;&#160;&#160;&#160;&#160;&#160;</text>
<polygon fill="#e7e2dd" stroke="transparent" points="2122.2,-971.11 2122.2,-1031.11 2472.2,-1031.11 2472.2,-971.11 2122.2,-971.11"/>
<polygon fill="none" stroke="#29235c" points="2122.2,-971.11 2122.2,-1031.11 2472.2,-1031.11 2472.2,-971.11 2122.2,-971.11"/>
<text text-anchor="start" x="2133.2" y="-992.31" font-family="Helvetica,sans-Serif" font-weight="bold" font-size="32.00" fill="#29235c">id</text>
<text text-anchor="start" x="2158.09" y="-992.31" font-family="Helvetica,sans-Serif" font-size="32.00" fill="#29235c"> &#160;&#160;&#160;</text>
<text text-anchor="start" x="2318.98" y="-992.31" font-family="Helvetica,sans-Serif" font-style="italic" font-size="32.00" fill="#29235c">INTEGER</text>
<polygon fill="#e7e2dd" stroke="transparent" points="2122.2,-911.11 2122.2,-971.11 2472.2,-971.11 2472.2,-911.11 2122.2,-911.11"/>
<polygon fill="none" stroke="#29235c" points="2122.2,-911.11 2122.2,-971.11 2472.2,-971.11 2472.2,-911.11 2122.2,-911.11"/>
<text text-anchor="start" x="2132.91" y="-931.31" font-family="Helvetica,sans-Serif" font-size="32.00" fill="#29235c">name &#160;&#160;&#160;</text>
<text text-anchor="start" x="2248.05" y="-932.31" font-family="Helvetica,sans-Serif" font-style="italic" font-size="32.00" fill="#29235c">VARCHAR(50)</text>
<polygon fill="none" stroke="#29235c" stroke-width="2" points="2121.2,-910.11 2121.2,-1092.11 2473.2,-1092.11 2473.2,-910.11 2121.2,-910.11"/>
</g>
<!-- Model&#45;&gt;Manufacturer -->
<!-- Model&#45;&gt;Manufacturer -->
<g id="edge4" class="edge">
<title>Model:e&#45;&gt;Manufacturer:w</title>
<path fill="none" stroke="#29235c" stroke-width="3" d="M1920,-881.11C2020.66,-881.11 2017.43,-993.27 2111.19,-1000.72"/>
<polygon fill="#29235c" stroke="#29235c" stroke-width="3" points="2111.07,-1004.22 2121.2,-1001.11 2111.35,-997.22 2111.07,-1004.22"/>
<text text-anchor="middle" x="2114.98" y="-972.31" font-family="Helvetica,sans-Serif" font-size="32.00" fill="#29235c">*</text>
<text text-anchor="middle" x="1911.11" y="-852.31" font-family="Helvetica,sans-Serif" font-size="32.00" fill="#29235c">1</text>
</g>
<!-- DeviceLog -->
<g id="DeviceLog" class="node">
<title>DeviceLog</title>
<ellipse fill="none" stroke="black" stroke-width="0" cx="345.78" cy="-493.11" rx="239" ry="214.92"/>
<polygon fill="#1d71b8" stroke="transparent" points="178.78,-583.11 178.78,-643.11 512.78,-643.11 512.78,-583.11 178.78,-583.11"/>
<polygon fill="none" stroke="#29235c" points="178.78,-583.11 178.78,-643.11 512.78,-643.11 512.78,-583.11 178.78,-583.11"/>
<text text-anchor="start" x="207.95" y="-604.31" font-family="Helvetica,sans-Serif" font-weight="bold" font-size="32.00" fill="#ffffff"> &#160;&#160;&#160;&#160;&#160;&#160;DeviceLog &#160;&#160;&#160;&#160;&#160;&#160;</text>
<polygon fill="#e7e2dd" stroke="transparent" points="178.78,-523.11 178.78,-583.11 512.78,-583.11 512.78,-523.11 178.78,-523.11"/>
<polygon fill="none" stroke="#29235c" points="178.78,-523.11 178.78,-583.11 512.78,-583.11 512.78,-523.11 178.78,-523.11"/>
<text text-anchor="start" x="189.78" y="-544.31" font-family="Helvetica,sans-Serif" font-weight="bold" font-size="32.00" fill="#29235c">id</text>
<text text-anchor="start" x="214.66" y="-544.31" font-family="Helvetica,sans-Serif" font-size="32.00" fill="#29235c"> &#160;&#160;&#160;</text>
<text text-anchor="start" x="359.56" y="-544.31" font-family="Helvetica,sans-Serif" font-style="italic" font-size="32.00" fill="#29235c">INTEGER</text>
<polygon fill="#e7e2dd" stroke="transparent" points="178.78,-463.11 178.78,-523.11 512.78,-523.11 512.78,-463.11 178.78,-463.11"/>
<polygon fill="none" stroke="#29235c" points="178.78,-463.11 178.78,-523.11 512.78,-523.11 512.78,-463.11 178.78,-463.11"/>
<text text-anchor="start" x="189.42" y="-483.31" font-family="Helvetica,sans-Serif" font-size="32.00" fill="#29235c">device_id &#160;&#160;&#160;</text>
<text text-anchor="start" x="359.67" y="-484.31" font-family="Helvetica,sans-Serif" font-style="italic" font-size="32.00" fill="#29235c">INTEGER</text>
<polygon fill="#e7e2dd" stroke="transparent" points="178.78,-403.11 178.78,-463.11 512.78,-463.11 512.78,-403.11 178.78,-403.11"/>
<polygon fill="none" stroke="#29235c" points="178.78,-403.11 178.78,-463.11 512.78,-463.11 512.78,-403.11 178.78,-403.11"/>
<text text-anchor="start" x="189.78" y="-423.31" font-family="Helvetica,sans-Serif" font-size="32.00" fill="#29235c">date &#160;&#160;&#160;</text>
<text text-anchor="start" x="340.01" y="-424.31" font-family="Helvetica,sans-Serif" font-style="italic" font-size="32.00" fill="#29235c">DATETIME</text>
<polygon fill="#e7e2dd" stroke="transparent" points="178.78,-343.11 178.78,-403.11 512.78,-403.11 512.78,-343.11 178.78,-343.11"/>
<polygon fill="none" stroke="#29235c" points="178.78,-343.11 178.78,-403.11 512.78,-403.11 512.78,-343.11 178.78,-343.11"/>
<text text-anchor="start" x="189.78" y="-363.31" font-family="Helvetica,sans-Serif" font-size="32.00" fill="#29235c">status_id &#160;&#160;&#160;</text>
<text text-anchor="start" x="359.56" y="-364.31" font-family="Helvetica,sans-Serif" font-style="italic" font-size="32.00" fill="#29235c">INTEGER</text>
<polygon fill="none" stroke="#29235c" stroke-width="2" points="177.78,-342.11 177.78,-644.11 513.78,-644.11 513.78,-342.11 177.78,-342.11"/>
</g>
<!-- DeviceLog&#45;&gt;Device -->
<!-- DeviceLog&#45;&gt;Device -->
<g id="edge6" class="edge">
<title>DeviceLog:e&#45;&gt;Device:w</title>
<path fill="none" stroke="#29235c" stroke-width="3" d="M513.78,-493.11C640.87,-493.11 625.14,-608.74 691.55,-717.11 762.22,-832.43 686.6,-992.73 811.18,-1000.79"/>
<polygon fill="#29235c" stroke="#29235c" stroke-width="3" points="811.23,-1004.29 821.33,-1001.11 811.45,-997.3 811.23,-1004.29"/>
<text text-anchor="middle" x="815.11" y="-972.31" font-family="Helvetica,sans-Serif" font-size="32.00" fill="#29235c">*</text>
<text text-anchor="middle" x="504.88" y="-464.31" font-family="Helvetica,sans-Serif" font-size="32.00" fill="#29235c">1</text>
</g>
<!-- Status -->
<g id="Status" class="node">
<title>Status</title>
<ellipse fill="none" stroke="black" stroke-width="0" cx="1044.33" cy="-506.11" rx="250.13" ry="130.22"/>
<polygon fill="#1d71b8" stroke="transparent" points="869.33,-536.11 869.33,-596.11 1219.33,-596.11 1219.33,-536.11 869.33,-536.11"/>
<polygon fill="none" stroke="#29235c" points="869.33,-536.11 869.33,-596.11 1219.33,-596.11 1219.33,-536.11 869.33,-536.11"/>
<text text-anchor="start" x="936.73" y="-557.31" font-family="Helvetica,sans-Serif" font-weight="bold" font-size="32.00" fill="#ffffff"> &#160;&#160;&#160;&#160;&#160;&#160;Status &#160;&#160;&#160;&#160;&#160;&#160;</text>
<polygon fill="#e7e2dd" stroke="transparent" points="869.33,-476.11 869.33,-536.11 1219.33,-536.11 1219.33,-476.11 869.33,-476.11"/>
<polygon fill="none" stroke="#29235c" points="869.33,-476.11 869.33,-536.11 1219.33,-536.11 1219.33,-476.11 869.33,-476.11"/>
<text text-anchor="start" x="880.33" y="-497.31" font-family="Helvetica,sans-Serif" font-weight="bold" font-size="32.00" fill="#29235c">id</text>
<text text-anchor="start" x="905.22" y="-497.31" font-family="Helvetica,sans-Serif" font-size="32.00" fill="#29235c"> &#160;&#160;&#160;</text>
<text text-anchor="start" x="1066.12" y="-497.31" font-family="Helvetica,sans-Serif" font-style="italic" font-size="32.00" fill="#29235c">INTEGER</text>
<polygon fill="#e7e2dd" stroke="transparent" points="869.33,-416.11 869.33,-476.11 1219.33,-476.11 1219.33,-416.11 869.33,-416.11"/>
<polygon fill="none" stroke="#29235c" points="869.33,-416.11 869.33,-476.11 1219.33,-476.11 1219.33,-416.11 869.33,-416.11"/>
<text text-anchor="start" x="880.04" y="-436.31" font-family="Helvetica,sans-Serif" font-size="32.00" fill="#29235c">name &#160;&#160;&#160;</text>
<text text-anchor="start" x="995.18" y="-437.31" font-family="Helvetica,sans-Serif" font-style="italic" font-size="32.00" fill="#29235c">VARCHAR(50)</text>
<polygon fill="none" stroke="#29235c" stroke-width="2" points="868.33,-415.11 868.33,-597.11 1220.33,-597.11 1220.33,-415.11 868.33,-415.11"/>
</g>
<!-- DeviceLog&#45;&gt;Status -->
<!-- DeviceLog&#45;&gt;Status -->
<g id="edge8" class="edge">
<title>DeviceLog:e&#45;&gt;Status:w</title>
<path fill="none" stroke="#29235c" stroke-width="3" d="M513.78,-373.11C678.63,-373.11 699.23,-500.71 858.17,-505.94"/>
<polygon fill="#29235c" stroke="#29235c" stroke-width="3" points="858.28,-509.44 868.33,-506.11 858.39,-502.45 858.28,-509.44"/>
<text text-anchor="middle" x="862.11" y="-477.31" font-family="Helvetica,sans-Serif" font-size="32.00" fill="#29235c">*</text>
<text text-anchor="middle" x="504.88" y="-344.31" font-family="Helvetica,sans-Serif" font-size="32.00" fill="#29235c">1</text>
</g>
<!-- Incident -->
<g id="Incident" class="node">
<title>Incident</title>
<ellipse fill="none" stroke="black" stroke-width="0" cx="345.78" cy="-941.11" rx="316.15" ry="214.92"/>
<polygon fill="#1d71b8" stroke="transparent" points="124.78,-1031.11 124.78,-1091.11 567.78,-1091.11 567.78,-1031.11 124.78,-1031.11"/>
<polygon fill="none" stroke="#29235c" points="124.78,-1031.11 124.78,-1091.11 567.78,-1091.11 567.78,-1031.11 124.78,-1031.11"/>
<text text-anchor="start" x="228" y="-1052.31" font-family="Helvetica,sans-Serif" font-weight="bold" font-size="32.00" fill="#ffffff"> &#160;&#160;&#160;&#160;&#160;&#160;Incident &#160;&#160;&#160;&#160;&#160;&#160;</text>
<polygon fill="#e7e2dd" stroke="transparent" points="124.78,-971.11 124.78,-1031.11 567.78,-1031.11 567.78,-971.11 124.78,-971.11"/>
<polygon fill="none" stroke="#29235c" points="124.78,-971.11 124.78,-1031.11 567.78,-1031.11 567.78,-971.11 124.78,-971.11"/>
<text text-anchor="start" x="135.78" y="-992.31" font-family="Helvetica,sans-Serif" font-weight="bold" font-size="32.00" fill="#29235c">id</text>
<text text-anchor="start" x="160.66" y="-992.31" font-family="Helvetica,sans-Serif" font-size="32.00" fill="#29235c"> &#160;&#160;&#160;</text>
<text text-anchor="start" x="414.56" y="-992.31" font-family="Helvetica,sans-Serif" font-style="italic" font-size="32.00" fill="#29235c">INTEGER</text>
<polygon fill="#e7e2dd" stroke="transparent" points="124.78,-911.11 124.78,-971.11 567.78,-971.11 567.78,-911.11 124.78,-911.11"/>
<polygon fill="none" stroke="#29235c" points="124.78,-911.11 124.78,-971.11 567.78,-971.11 567.78,-911.11 124.78,-911.11"/>
<text text-anchor="start" x="135.78" y="-931.31" font-family="Helvetica,sans-Serif" font-size="32.00" fill="#29235c">device_id &#160;&#160;&#160;</text>
<text text-anchor="start" x="414.56" y="-932.31" font-family="Helvetica,sans-Serif" font-style="italic" font-size="32.00" fill="#29235c">INTEGER</text>
<polygon fill="#e7e2dd" stroke="transparent" points="124.78,-851.11 124.78,-911.11 567.78,-911.11 567.78,-851.11 124.78,-851.11"/>
<polygon fill="none" stroke="#29235c" points="124.78,-851.11 124.78,-911.11 567.78,-911.11 567.78,-851.11 124.78,-851.11"/>
<text text-anchor="start" x="135.64" y="-871.31" font-family="Helvetica,sans-Serif" font-size="32.00" fill="#29235c">description &#160;&#160;&#160;</text>
<text text-anchor="start" x="325.73" y="-872.31" font-family="Helvetica,sans-Serif" font-style="italic" font-size="32.00" fill="#29235c">VARCHAR(200)</text>
<polygon fill="#e7e2dd" stroke="transparent" points="124.78,-791.11 124.78,-851.11 567.78,-851.11 567.78,-791.11 124.78,-791.11"/>
<polygon fill="none" stroke="#29235c" points="124.78,-791.11 124.78,-851.11 567.78,-851.11 567.78,-791.11 124.78,-791.11"/>
<text text-anchor="start" x="135.78" y="-811.31" font-family="Helvetica,sans-Serif" font-size="32.00" fill="#29235c">date_reported &#160;&#160;&#160;</text>
<text text-anchor="start" x="395.01" y="-812.31" font-family="Helvetica,sans-Serif" font-style="italic" font-size="32.00" fill="#29235c">DATETIME</text>
<polygon fill="none" stroke="#29235c" stroke-width="2" points="123.28,-790.11 123.28,-1092.11 568.28,-1092.11 568.28,-790.11 123.28,-790.11"/>
</g>
<!-- Incident&#45;&gt;Device -->
<!-- Incident&#45;&gt;Device -->
<g id="edge10" class="edge">
<title>Incident:e&#45;&gt;Device:w</title>
<path fill="none" stroke="#29235c" stroke-width="3" d="M568.78,-941.11C680.66,-941.11 704.56,-997.53 811.11,-1000.95"/>
<polygon fill="#29235c" stroke="#29235c" stroke-width="3" points="811.28,-1004.45 821.33,-1001.11 811.39,-997.45 811.28,-1004.45"/>
<text text-anchor="middle" x="815.11" y="-1010.71" font-family="Helvetica,sans-Serif" font-size="32.00" fill="#29235c">*</text>
<text text-anchor="middle" x="559.88" y="-912.31" font-family="Helvetica,sans-Serif" font-size="32.00" fill="#29235c">1</text>
</g>
<!-- Location -->
<g id="Location" class="node">
<title>Location</title>
<ellipse fill="none" stroke="black" stroke-width="0" cx="345.78" cy="-1346.11" rx="287.17" ry="172.57"/>
<polygon fill="#1d71b8" stroke="transparent" points="144.78,-1406.11 144.78,-1466.11 546.78,-1466.11 546.78,-1406.11 144.78,-1406.11"/>
<polygon fill="none" stroke="#29235c" points="144.78,-1406.11 144.78,-1466.11 546.78,-1466.11 546.78,-1406.11 144.78,-1406.11"/>
<text text-anchor="start" x="223.06" y="-1427.31" font-family="Helvetica,sans-Serif" font-weight="bold" font-size="32.00" fill="#ffffff"> &#160;&#160;&#160;&#160;&#160;&#160;Location &#160;&#160;&#160;&#160;&#160;&#160;</text>
<polygon fill="#e7e2dd" stroke="transparent" points="144.78,-1346.11 144.78,-1406.11 546.78,-1406.11 546.78,-1346.11 144.78,-1346.11"/>
<polygon fill="none" stroke="#29235c" points="144.78,-1346.11 144.78,-1406.11 546.78,-1406.11 546.78,-1346.11 144.78,-1346.11"/>
<text text-anchor="start" x="155.78" y="-1367.31" font-family="Helvetica,sans-Serif" font-weight="bold" font-size="32.00" fill="#29235c">id</text>
<text text-anchor="start" x="180.66" y="-1367.31" font-family="Helvetica,sans-Serif" font-size="32.00" fill="#29235c"> &#160;&#160;&#160;</text>
<text text-anchor="start" x="393.56" y="-1367.31" font-family="Helvetica,sans-Serif" font-style="italic" font-size="32.00" fill="#29235c">INTEGER</text>
<polygon fill="#e7e2dd" stroke="transparent" points="144.78,-1286.11 144.78,-1346.11 546.78,-1346.11 546.78,-1286.11 144.78,-1286.11"/>
<polygon fill="none" stroke="#29235c" points="144.78,-1286.11 144.78,-1346.11 546.78,-1346.11 546.78,-1286.11 144.78,-1286.11"/>
<text text-anchor="start" x="155.78" y="-1306.31" font-family="Helvetica,sans-Serif" font-size="32.00" fill="#29235c">name &#160;&#160;&#160;</text>
<text text-anchor="start" x="304.68" y="-1307.31" font-family="Helvetica,sans-Serif" font-style="italic" font-size="32.00" fill="#29235c">VARCHAR(100)</text>
<polygon fill="#e7e2dd" stroke="transparent" points="144.78,-1226.11 144.78,-1286.11 546.78,-1286.11 546.78,-1226.11 144.78,-1226.11"/>
<polygon fill="none" stroke="#29235c" points="144.78,-1226.11 144.78,-1286.11 546.78,-1286.11 546.78,-1226.11 144.78,-1226.11"/>
<text text-anchor="start" x="155.59" y="-1246.31" font-family="Helvetica,sans-Serif" font-size="32.00" fill="#29235c">address &#160;&#160;&#160;</text>
<text text-anchor="start" x="304.73" y="-1247.31" font-family="Helvetica,sans-Serif" font-style="italic" font-size="32.00" fill="#29235c">VARCHAR(200)</text>
<polygon fill="none" stroke="#29235c" stroke-width="2" points="143.78,-1225.11 143.78,-1467.11 547.78,-1467.11 547.78,-1225.11 143.78,-1225.11"/>
</g>
<!-- Role -->
<g id="Role" class="node">
<title>Role</title>
<ellipse fill="none" stroke="black" stroke-width="0" cx="1044.33" cy="-1884.11" rx="250.13" ry="130.22"/>
<polygon fill="#1d71b8" stroke="transparent" points="869.33,-1914.11 869.33,-1974.11 1219.33,-1974.11 1219.33,-1914.11 869.33,-1914.11"/>
<polygon fill="none" stroke="#29235c" points="869.33,-1914.11 869.33,-1974.11 1219.33,-1974.11 1219.33,-1914.11 869.33,-1914.11"/>
<text text-anchor="start" x="949.2" y="-1935.31" font-family="Helvetica,sans-Serif" font-weight="bold" font-size="32.00" fill="#ffffff"> &#160;&#160;&#160;&#160;&#160;&#160;Role &#160;&#160;&#160;&#160;&#160;&#160;</text>
<polygon fill="#e7e2dd" stroke="transparent" points="869.33,-1854.11 869.33,-1914.11 1219.33,-1914.11 1219.33,-1854.11 869.33,-1854.11"/>
<polygon fill="none" stroke="#29235c" points="869.33,-1854.11 869.33,-1914.11 1219.33,-1914.11 1219.33,-1854.11 869.33,-1854.11"/>
<text text-anchor="start" x="880.33" y="-1875.31" font-family="Helvetica,sans-Serif" font-weight="bold" font-size="32.00" fill="#29235c">id</text>
<text text-anchor="start" x="905.22" y="-1875.31" font-family="Helvetica,sans-Serif" font-size="32.00" fill="#29235c"> &#160;&#160;&#160;</text>
<text text-anchor="start" x="1066.12" y="-1875.31" font-family="Helvetica,sans-Serif" font-style="italic" font-size="32.00" fill="#29235c">INTEGER</text>
<polygon fill="#e7e2dd" stroke="transparent" points="869.33,-1794.11 869.33,-1854.11 1219.33,-1854.11 1219.33,-1794.11 869.33,-1794.11"/>
<polygon fill="none" stroke="#29235c" points="869.33,-1794.11 869.33,-1854.11 1219.33,-1854.11 1219.33,-1794.11 869.33,-1794.11"/>
<text text-anchor="start" x="880.04" y="-1814.31" font-family="Helvetica,sans-Serif" font-size="32.00" fill="#29235c">name &#160;&#160;&#160;</text>
<text text-anchor="start" x="995.18" y="-1815.31" font-family="Helvetica,sans-Serif" font-style="italic" font-size="32.00" fill="#29235c">VARCHAR(50)</text>
<polygon fill="none" stroke="#29235c" stroke-width="2" points="868.33,-1793.11 868.33,-1975.11 1220.33,-1975.11 1220.33,-1793.11 868.33,-1793.11"/>
</g>
<!-- Software -->
<g id="Software" class="node">
<title>Software</title>
<ellipse fill="none" stroke="black" stroke-width="0" cx="345.78" cy="-2242.11" rx="266.66" ry="172.57"/>
<polygon fill="#1d71b8" stroke="transparent" points="159.78,-2302.11 159.78,-2362.11 532.78,-2362.11 532.78,-2302.11 159.78,-2302.11"/>
<polygon fill="none" stroke="#29235c" points="159.78,-2302.11 159.78,-2362.11 532.78,-2362.11 532.78,-2302.11 159.78,-2302.11"/>
<text text-anchor="start" x="220.9" y="-2323.31" font-family="Helvetica,sans-Serif" font-weight="bold" font-size="32.00" fill="#ffffff"> &#160;&#160;&#160;&#160;&#160;&#160;Software &#160;&#160;&#160;&#160;&#160;&#160;</text>
<polygon fill="#e7e2dd" stroke="transparent" points="159.78,-2242.11 159.78,-2302.11 532.78,-2302.11 532.78,-2242.11 159.78,-2242.11"/>
<polygon fill="none" stroke="#29235c" points="159.78,-2242.11 159.78,-2302.11 532.78,-2302.11 532.78,-2242.11 159.78,-2242.11"/>
<text text-anchor="start" x="170.78" y="-2263.31" font-family="Helvetica,sans-Serif" font-weight="bold" font-size="32.00" fill="#29235c">id</text>
<text text-anchor="start" x="195.66" y="-2263.31" font-family="Helvetica,sans-Serif" font-size="32.00" fill="#29235c"> &#160;&#160;&#160;</text>
<text text-anchor="start" x="379.56" y="-2263.31" font-family="Helvetica,sans-Serif" font-style="italic" font-size="32.00" fill="#29235c">INTEGER</text>
<polygon fill="#e7e2dd" stroke="transparent" points="159.78,-2182.11 159.78,-2242.11 532.78,-2242.11 532.78,-2182.11 159.78,-2182.11"/>
<polygon fill="none" stroke="#29235c" points="159.78,-2182.11 159.78,-2242.11 532.78,-2242.11 532.78,-2182.11 159.78,-2182.11"/>
<text text-anchor="start" x="170.78" y="-2202.31" font-family="Helvetica,sans-Serif" font-size="32.00" fill="#29235c">name &#160;&#160;&#160;</text>
<text text-anchor="start" x="290.68" y="-2203.31" font-family="Helvetica,sans-Serif" font-style="italic" font-size="32.00" fill="#29235c">VARCHAR(100)</text>
<polygon fill="#e7e2dd" stroke="transparent" points="159.78,-2122.11 159.78,-2182.11 532.78,-2182.11 532.78,-2122.11 159.78,-2122.11"/>
<polygon fill="none" stroke="#29235c" points="159.78,-2122.11 159.78,-2182.11 532.78,-2182.11 532.78,-2122.11 159.78,-2122.11"/>
<text text-anchor="start" x="170.43" y="-2142.31" font-family="Helvetica,sans-Serif" font-size="32.00" fill="#29235c">version &#160;&#160;&#160;</text>
<text text-anchor="start" x="308.62" y="-2143.31" font-family="Helvetica,sans-Serif" font-style="italic" font-size="32.00" fill="#29235c">VARCHAR(20)</text>
<polygon fill="none" stroke="#29235c" stroke-width="2" points="158.28,-2121.11 158.28,-2363.11 533.28,-2363.11 533.28,-2121.11 158.28,-2121.11"/>
</g>
<!-- Supplier -->
<g id="Supplier" class="node">
<title>Supplier</title>
<ellipse fill="none" stroke="black" stroke-width="0" cx="345.78" cy="-2647.11" rx="345.55" ry="214.92"/>
<polygon fill="#1d71b8" stroke="transparent" points="103.78,-2737.11 103.78,-2797.11 588.78,-2797.11 588.78,-2737.11 103.78,-2737.11"/>
<polygon fill="none" stroke="#29235c" points="103.78,-2737.11 103.78,-2797.11 588.78,-2797.11 588.78,-2737.11 103.78,-2737.11"/>
<text text-anchor="start" x="225.35" y="-2758.31" font-family="Helvetica,sans-Serif" font-weight="bold" font-size="32.00" fill="#ffffff"> &#160;&#160;&#160;&#160;&#160;&#160;Supplier &#160;&#160;&#160;&#160;&#160;&#160;</text>
<polygon fill="#e7e2dd" stroke="transparent" points="103.78,-2677.11 103.78,-2737.11 588.78,-2737.11 588.78,-2677.11 103.78,-2677.11"/>
<polygon fill="none" stroke="#29235c" points="103.78,-2677.11 103.78,-2737.11 588.78,-2737.11 588.78,-2677.11 103.78,-2677.11"/>
<text text-anchor="start" x="114.78" y="-2698.31" font-family="Helvetica,sans-Serif" font-weight="bold" font-size="32.00" fill="#29235c">id</text>
<text text-anchor="start" x="139.66" y="-2698.31" font-family="Helvetica,sans-Serif" font-size="32.00" fill="#29235c"> &#160;&#160;&#160;</text>
<text text-anchor="start" x="435.56" y="-2698.31" font-family="Helvetica,sans-Serif" font-style="italic" font-size="32.00" fill="#29235c">INTEGER</text>
<polygon fill="#e7e2dd" stroke="transparent" points="103.78,-2617.11 103.78,-2677.11 588.78,-2677.11 588.78,-2617.11 103.78,-2617.11"/>
<polygon fill="none" stroke="#29235c" points="103.78,-2617.11 103.78,-2677.11 588.78,-2677.11 588.78,-2617.11 103.78,-2617.11"/>
<text text-anchor="start" x="114.78" y="-2637.31" font-family="Helvetica,sans-Serif" font-size="32.00" fill="#29235c">name &#160;&#160;&#160;</text>
<text text-anchor="start" x="346.68" y="-2638.31" font-family="Helvetica,sans-Serif" font-style="italic" font-size="32.00" fill="#29235c">VARCHAR(100)</text>
<polygon fill="#e7e2dd" stroke="transparent" points="103.78,-2557.11 103.78,-2617.11 588.78,-2617.11 588.78,-2557.11 103.78,-2557.11"/>
<polygon fill="none" stroke="#29235c" points="103.78,-2557.11 103.78,-2617.11 588.78,-2617.11 588.78,-2557.11 103.78,-2557.11"/>
<text text-anchor="start" x="114.3" y="-2577.31" font-family="Helvetica,sans-Serif" font-size="32.00" fill="#29235c">contact_email &#160;&#160;&#160;</text>
<text text-anchor="start" x="346.73" y="-2578.31" font-family="Helvetica,sans-Serif" font-style="italic" font-size="32.00" fill="#29235c">VARCHAR(100)</text>
<polygon fill="#e7e2dd" stroke="transparent" points="103.78,-2497.11 103.78,-2557.11 588.78,-2557.11 588.78,-2497.11 103.78,-2497.11"/>
<polygon fill="none" stroke="#29235c" points="103.78,-2497.11 103.78,-2557.11 588.78,-2557.11 588.78,-2497.11 103.78,-2497.11"/>
<text text-anchor="start" x="114.78" y="-2517.31" font-family="Helvetica,sans-Serif" font-size="32.00" fill="#29235c">contact_phone &#160;&#160;&#160;</text>
<text text-anchor="start" x="364.47" y="-2518.31" font-family="Helvetica,sans-Serif" font-style="italic" font-size="32.00" fill="#29235c">VARCHAR(20)</text>
<polygon fill="none" stroke="#29235c" stroke-width="2" points="102.28,-2496.11 102.28,-2798.11 589.28,-2798.11 589.28,-2496.11 102.28,-2496.11"/>
</g>
<!-- User -->
<g id="User" class="node">
<title>User</title>
<ellipse fill="none" stroke="black" stroke-width="0" cx="345.78" cy="-1794.11" rx="299.21" ry="257.27"/>
<polygon fill="#1d71b8" stroke="transparent" points="136.78,-1914.11 136.78,-1974.11 555.78,-1974.11 555.78,-1914.11 136.78,-1914.11"/>
<polygon fill="none" stroke="#29235c" points="136.78,-1914.11 136.78,-1974.11 555.78,-1974.11 555.78,-1914.11 136.78,-1914.11"/>
<text text-anchor="start" x="250.25" y="-1935.31" font-family="Helvetica,sans-Serif" font-weight="bold" font-size="32.00" fill="#ffffff"> &#160;&#160;&#160;&#160;&#160;&#160;User &#160;&#160;&#160;&#160;&#160;&#160;</text>
<polygon fill="#e7e2dd" stroke="transparent" points="136.78,-1854.11 136.78,-1914.11 555.78,-1914.11 555.78,-1854.11 136.78,-1854.11"/>
<polygon fill="none" stroke="#29235c" points="136.78,-1854.11 136.78,-1914.11 555.78,-1914.11 555.78,-1854.11 136.78,-1854.11"/>
<text text-anchor="start" x="147.78" y="-1875.31" font-family="Helvetica,sans-Serif" font-weight="bold" font-size="32.00" fill="#29235c">id</text>
<text text-anchor="start" x="172.66" y="-1875.31" font-family="Helvetica,sans-Serif" font-size="32.00" fill="#29235c"> &#160;&#160;&#160;</text>
<text text-anchor="start" x="402.56" y="-1875.31" font-family="Helvetica,sans-Serif" font-style="italic" font-size="32.00" fill="#29235c">INTEGER</text>
<polygon fill="#e7e2dd" stroke="transparent" points="136.78,-1794.11 136.78,-1854.11 555.78,-1854.11 555.78,-1794.11 136.78,-1794.11"/>
<polygon fill="none" stroke="#29235c" points="136.78,-1794.11 136.78,-1854.11 555.78,-1854.11 555.78,-1794.11 136.78,-1794.11"/>
<text text-anchor="start" x="147.32" y="-1814.31" font-family="Helvetica,sans-Serif" font-size="32.00" fill="#29235c">first_name &#160;&#160;&#160;</text>
<text text-anchor="start" x="331.62" y="-1815.31" font-family="Helvetica,sans-Serif" font-style="italic" font-size="32.00" fill="#29235c">VARCHAR(50)</text>
<polygon fill="#e7e2dd" stroke="transparent" points="136.78,-1734.11 136.78,-1794.11 555.78,-1794.11 555.78,-1734.11 136.78,-1734.11"/>
<polygon fill="none" stroke="#29235c" points="136.78,-1734.11 136.78,-1794.11 555.78,-1794.11 555.78,-1734.11 136.78,-1734.11"/>
<text text-anchor="start" x="147.78" y="-1754.31" font-family="Helvetica,sans-Serif" font-size="32.00" fill="#29235c">last_name &#160;&#160;&#160;</text>
<text text-anchor="start" x="331.62" y="-1755.31" font-family="Helvetica,sans-Serif" font-style="italic" font-size="32.00" fill="#29235c">VARCHAR(50)</text>
<polygon fill="#e7e2dd" stroke="transparent" points="136.78,-1674.11 136.78,-1734.11 555.78,-1734.11 555.78,-1674.11 136.78,-1674.11"/>
<polygon fill="none" stroke="#29235c" points="136.78,-1674.11 136.78,-1734.11 555.78,-1734.11 555.78,-1674.11 136.78,-1674.11"/>
<text text-anchor="start" x="147.78" y="-1694.31" font-family="Helvetica,sans-Serif" font-size="32.00" fill="#29235c">email &#160;&#160;&#160;</text>
<text text-anchor="start" x="313.68" y="-1695.31" font-family="Helvetica,sans-Serif" font-style="italic" font-size="32.00" fill="#29235c">VARCHAR(100)</text>
<polygon fill="#e7e2dd" stroke="transparent" points="136.78,-1614.11 136.78,-1674.11 555.78,-1674.11 555.78,-1614.11 136.78,-1614.11"/>
<polygon fill="none" stroke="#29235c" points="136.78,-1614.11 136.78,-1674.11 555.78,-1674.11 555.78,-1614.11 136.78,-1614.11"/>
<text text-anchor="start" x="147.78" y="-1634.31" font-family="Helvetica,sans-Serif" font-size="32.00" fill="#29235c">role_id &#160;&#160;&#160;</text>
<text text-anchor="start" x="402.56" y="-1635.31" font-family="Helvetica,sans-Serif" font-style="italic" font-size="32.00" fill="#29235c">INTEGER</text>
<polygon fill="none" stroke="#29235c" stroke-width="2" points="135.28,-1613.11 135.28,-1975.11 556.28,-1975.11 556.28,-1613.11 135.28,-1613.11"/>
</g>
<!-- User&#45;&gt;Role -->
<!-- User&#45;&gt;Role -->
<g id="edge12" class="edge">
<title>User:e&#45;&gt;Role:w</title>
<path fill="none" stroke="#29235c" stroke-width="3" d="M556.78,-1644.11C728.15,-1644.11 694.95,-1874.82 858.33,-1883.84"/>
<polygon fill="#29235c" stroke="#29235c" stroke-width="3" points="858.24,-1887.34 868.33,-1884.11 858.43,-1880.34 858.24,-1887.34"/>
<text text-anchor="middle" x="862.11" y="-1893.71" font-family="Helvetica,sans-Serif" font-size="32.00" fill="#29235c">*</text>
<text text-anchor="middle" x="547.88" y="-1653.71" font-family="Helvetica,sans-Serif" font-size="32.00" fill="#29235c">1</text>
</g>
</g>
</svg>
